<svg width="44" height="44" viewBox="0 0 44 44" fill="none" xmlns="http://www.w3.org/2000/svg">
<rect width="44" height="44" fill="url(#paint0_linear_19_863)"/>
<path d="M28 29H31C32.6569 29 34 30.3431 34 32V32C34 33.6569 32.6569 35 31 35V35C29.3431 35 28 33.6569 28 32V29Z" fill="#E6E6E6" fill-opacity="0.9"/>
<path opacity="0.9" d="M19 30C19 29.4477 19.4477 29 20 29H24C24.5523 29 25 29.4477 25 30V33C25 34.1046 24.1046 35 23 35H21C19.8954 35 19 34.1046 19 33V30Z" fill="#828282"/>
<path d="M10 32C10 30.3431 11.3431 29 13 29H16V32C16 33.6569 14.6569 35 13 35V35C11.3431 35 10 33.6569 10 32V32Z" fill="#E6E6E6" fill-opacity="0.9"/>
<path opacity="0.9" d="M28 20C28 19.4477 28.4477 19 29 19H32C33.1046 19 34 19.8954 34 21V23C34 24.1046 33.1046 25 32 25H29C28.4477 25 28 24.5523 28 24V20Z" fill="#828282"/>
<rect x="19" y="19" width="6" height="6" fill="#828282"/>
<path opacity="0.9" d="M10 21C10 19.8954 10.8954 19 12 19H15C15.5523 19 16 19.4477 16 20V24C16 24.5523 15.5523 25 15 25H12C10.8954 25 10 24.1046 10 23V21Z" fill="#828282"/>
<path opacity="0.9" d="M19 12C19 10.8954 19.8954 10 21 10H23C24.1046 10 25 10.8954 25 12V15C25 15.5523 24.5523 16 24 16H20C19.4477 16 19 15.5523 19 15V12Z" fill="#828282"/>
<path d="M28 13C28 11.3431 29.3431 10 31 10V10C32.6569 10 34 11.3431 34 13V13C34 14.6569 32.6569 16 31 16H28V13Z" fill="#E6E6E6" fill-opacity="0.9"/>
<path d="M10 13C10 11.3431 11.3431 10 13 10V10C14.6569 10 16 11.3431 16 13V16H13C11.3431 16 10 14.6569 10 13V13Z" fill="#E6E6E6" fill-opacity="0.9"/>
<path d="M16.6845 36.76V18.328C16.6845 16.392 17.2045 14.96 18.2445 14.032C19.3005 13.104 20.7165 12.64 22.4925 12.64C24.2045 12.64 25.5485 13.024 26.5245 13.792C27.5005 14.56 27.9885 15.712 27.9885 17.248C27.9885 18.4 27.7005 19.32 27.1245 20.008C26.5485 20.68 25.7725 21.104 24.7965 21.28V21.352C26.0285 21.512 27.0205 21.952 27.7725 22.672C28.5405 23.392 28.9245 24.48 28.9245 25.936C28.9245 27.056 28.6685 28.016 28.1565 28.816C27.6605 29.6 26.9885 30.2 26.1405 30.616C25.3085 31.032 24.3805 31.24 23.3565 31.24C22.8445 31.24 22.4205 31.208 22.0845 31.144C21.7485 31.096 21.4365 31.016 21.1485 30.904C20.8765 30.792 20.5805 30.656 20.2605 30.496V36.76H16.6845ZM22.6845 28.384C23.4845 28.384 24.1085 28.144 24.5565 27.664C25.0045 27.168 25.2285 26.488 25.2285 25.624C25.2285 24.968 25.0925 24.44 24.8205 24.04C24.5645 23.624 24.2365 23.328 23.8365 23.152C23.4365 22.96 23.0205 22.864 22.5885 22.864H21.5085V20.176H22.3725C23.0125 20.176 23.5085 19.944 23.8605 19.48C24.2285 19.016 24.4125 18.416 24.4125 17.68C24.4125 16.928 24.2205 16.368 23.8365 16C23.4525 15.616 22.9965 15.424 22.4685 15.424C21.7805 15.424 21.2365 15.648 20.8365 16.096C20.4525 16.528 20.2605 17.28 20.2605 18.352V27.568C20.6605 27.824 21.0525 28.024 21.4365 28.168C21.8205 28.312 22.2365 28.384 22.6845 28.384Z" fill="white"/>
<defs>
<linearGradient id="paint0_linear_19_863" x1="0.209524" y1="0.263672" x2="50.3887" y2="9.07517" gradientUnits="userSpaceOnUse">
<stop stop-color="#2151FF"/>
<stop offset="1" stop-color="#5300D9"/>
</linearGradient>
</defs>
</svg>
